<svg width="67" height="64" viewBox="0 0 67 64" fill="none" xmlns="http://www.w3.org/2000/svg">
<path d="M66.0925 32C66.0925 49.3784 51.428 63.5 33.2963 63.5C15.1645 63.5 0.5 49.3784 0.5 32C0.5 14.6216 15.1645 0.5 33.2963 0.5C51.428 0.5 66.0925 14.6216 66.0925 32Z" fill="#F5F5F5" stroke="#292D54"/>
<path d="M17.9388 32.7071C17.5483 32.3166 17.5483 31.6834 17.9388 31.2929L24.3028 24.9289C24.6933 24.5384 25.3265 24.5384 25.717 24.9289C26.1075 25.3195 26.1075 25.9526 25.717 26.3431L20.0601 32L25.717 37.6569C26.1075 38.0474 26.1075 38.6805 25.717 39.0711C25.3265 39.4616 24.6933 39.4616 24.3028 39.0711L17.9388 32.7071ZM47.2807 33L18.6459 33V31L47.2807 31V33Z" fill="#292D54"/>
</svg>
