<svg width="67" height="64" viewBox="0 0 67 64" fill="none" xmlns="http://www.w3.org/2000/svg">
<path d="M66.0925 32C66.0925 49.3784 51.428 63.5 33.2963 63.5C15.1645 63.5 0.5 49.3784 0.5 32C0.5 14.6216 15.1645 0.5 33.2963 0.5C51.428 0.5 66.0925 14.6216 66.0925 32Z" fill="#F5F5F5" stroke="#292D54"/>
<path d="M47.9878 32.7071C48.3784 32.3166 48.3784 31.6834 47.9878 31.2929L41.6239 24.9289C41.2333 24.5384 40.6002 24.5384 40.2097 24.9289C39.8191 25.3195 39.8191 25.9526 40.2097 26.3431L45.8665 32L40.2097 37.6569C39.8191 38.0474 39.8191 38.6805 40.2097 39.0711C40.6002 39.4616 41.2333 39.4616 41.6239 39.0711L47.9878 32.7071ZM18.6459 33L47.2807 33V31L18.6459 31V33Z" fill="#292D54"/>
</svg>
