<svg width="91" height="61" viewBox="0 0 91 61" fill="none" xmlns="http://www.w3.org/2000/svg">
<path d="M91 61H73.4418V59.5841C74.0451 59.5841 74.548 59.5841 74.9502 59.5841C75.3525 59.5391 75.6743 59.4942 75.9156 59.4492C76.1972 59.3593 76.4385 59.2919 76.6397 59.2469C76.8408 59.157 77.0419 59.0447 77.243 58.9098C77.5648 58.6851 77.8062 58.4154 77.9671 58.1007C78.1682 57.7411 78.2688 57.3815 78.2688 57.0219C78.2688 55.7633 77.8263 54.0103 76.9413 51.7627L74.0451 44.4134H56.0646L52.8667 53.381C52.7058 53.8754 52.565 54.3923 52.4443 54.9317C52.3638 55.4262 52.3236 55.9206 52.3236 56.4151C52.3236 57.4489 52.6856 58.2356 53.4097 58.775C54.1338 59.3144 55.3405 59.5841 57.03 59.5841V61H43.3333V59.5841C44.1781 59.5391 44.9021 59.3818 45.5055 59.1121C46.1089 58.8424 46.7122 58.2805 47.3156 57.4265C47.919 56.5275 48.5626 55.2689 49.2464 53.6507C49.9705 51.9875 50.8755 49.74 51.9616 46.9081L66.2616 9.15H67.589L84.7852 52.8415C85.3484 54.28 85.8311 55.4262 86.2333 56.2802C86.6758 57.1343 87.1183 57.8085 87.5608 58.303C88.0032 58.7525 88.4859 59.0671 89.0089 59.2469C89.572 59.4267 90.2357 59.5391 91 59.5841V61ZM73.1401 41.3118L65.1755 20.0729L57.211 41.3118H73.1401Z" fill="#FF3309"/>
<path d="M67.8889 1.55078C66.905 1.73058 66.0922 1.93286 65.4505 2.15761C64.8516 2.38236 64.3383 2.67453 63.9105 3.03414C63.4827 3.39374 63.1191 3.88819 62.8197 4.51749C62.5202 5.14679 62.1994 5.9559 61.8572 6.9448C60.531 10.7206 59.376 13.9795 58.3921 16.7215C57.451 19.4634 56.5955 21.9581 55.8255 24.2057C55.0555 26.4082 54.3496 28.4534 53.7079 30.3414C53.109 32.2293 52.4674 34.2071 51.7829 36.2748C51.0985 38.3425 50.3712 40.6349 49.6012 43.1521C48.8312 45.6244 47.9329 48.5237 46.9062 51.85H45.8154L34.1369 19.2836L22.7794 51.85H21.6885L7.57173 10.5183C6.88728 8.67538 6.28838 7.19202 5.77505 6.06827C5.26171 4.94452 4.72698 4.06799 4.17087 3.43869C3.65753 2.76443 3.05864 2.31493 2.37419 2.09018C1.73251 1.82048 0.941119 1.64068 0 1.55078V0H17.9668V1.55078C16.1274 1.64068 14.8654 1.86543 14.1809 2.22503C13.4965 2.53968 13.1543 3.10156 13.1543 3.91066C13.1543 4.36016 13.2184 4.87709 13.3468 5.46144C13.5179 6.0458 13.7318 6.72005 13.9884 7.4842L24.576 36.477L32.4044 14.6987L29.9661 8.42815C29.3244 6.89985 28.7683 5.68619 28.2977 4.78719C27.87 3.84324 27.3994 3.14651 26.8861 2.69701C26.3727 2.20256 25.7738 1.88791 25.0894 1.75306C24.4477 1.61821 23.6135 1.55078 22.5869 1.55078V0H42.0937V1.55078C40.1687 1.55078 38.757 1.77553 37.8586 2.22503C37.0031 2.67453 36.5753 3.32631 36.5753 4.18036C36.5753 4.58492 36.6609 5.12432 36.832 5.79857C37.0031 6.47282 37.2598 7.23697 37.602 8.09103L38.5003 10.4509L48.1896 36.6793L57.3013 10.6532C58.1141 8.31578 58.5205 6.36045 58.5205 4.78719C58.5205 3.75334 58.1355 3.01166 57.3655 2.56216C56.6382 2.06771 55.3335 1.73058 53.4513 1.55078V0H67.8889V1.55078Z" fill="#FF3309"/>
</svg>
