<svg width="296" height="65" viewBox="0 0 296 65" fill="none" xmlns="http://www.w3.org/2000/svg">
<rect x="0.5" y="0.5" width="295" height="64" rx="32" fill="#F5F5F5" stroke="#292D54"/>
<path d="M36.7734 40.1406L34.4414 39.9062L35.7188 24.9531H38.4609L42.1172 33.918L41.0742 33.9297L44.7305 24.9531H47.4844L48.75 39.9062L46.4297 40.1406L45.375 26.6641L45.9727 26.6992L42.5859 35.1836H40.6055L37.1836 26.7344L37.8281 26.6992L36.7734 40.1406ZM52.0481 40V38.0781H55.3645L54.4387 38.8867V26.0664L55.3645 26.875H52.0481V24.9531H59.1614V26.875H55.8098L56.7708 26.0664V38.8867L55.8098 38.0781H59.1614V40H52.0481ZM71.6939 40.1523L64.2642 27.3906L65.0377 27.3203V40H62.7759V24.9531H65.1666L72.5142 37.4922L71.7291 37.5625V24.9531H73.9908V39.9062L71.6939 40.1523ZM78.2381 40V24.9531H86.8514L86.5467 26.875H79.5975L80.5584 25.6094V32.043L79.5975 31.1641H86.1952V33.0859H79.5975L80.5584 32.2656V39.3438L79.5975 38.0781H86.6873L86.8983 40H78.2381ZM98.7562 40V24.9531H103.42C104.452 24.9531 105.346 25.0938 106.104 25.375C106.862 25.6562 107.448 26.1328 107.862 26.8047C108.284 27.4766 108.495 28.4062 108.495 29.5938C108.495 30.7969 108.248 31.7305 107.756 32.3945C107.264 33.0508 106.588 33.5078 105.729 33.7656C104.877 34.0234 103.901 34.1523 102.799 34.1523H101.077V40H98.7562ZM101.077 33.4727L100.514 32.2422H102.588C103.315 32.2422 103.948 32.1875 104.487 32.0781C105.026 31.9688 105.444 31.7266 105.741 31.3516C106.037 30.9688 106.186 30.3789 106.186 29.582C106.186 28.8633 106.077 28.3086 105.858 27.918C105.647 27.5195 105.33 27.2461 104.909 27.0977C104.495 26.9414 103.991 26.8633 103.397 26.8633H100.514L101.077 25.6328V33.4727ZM119.925 40.2344C119.621 39.6875 119.265 39.0234 118.859 38.2422C118.453 37.4609 118.047 36.6562 117.64 35.8281C117.242 35 116.886 34.2422 116.574 33.5547L117.652 34.0234C117.379 34.0625 117.07 34.0938 116.726 34.1172C116.39 34.1406 116.082 34.1523 115.8 34.1523H113.668L114.078 33.4609V40H111.757V24.9531H116.422C117.453 24.9531 118.347 25.0938 119.105 25.375C119.863 25.6562 120.449 26.1328 120.863 26.8047C121.285 27.4766 121.496 28.4062 121.496 29.5938C121.496 30.8359 121.215 31.7969 120.652 32.4766C120.09 33.1484 119.343 33.6016 118.414 33.8359L118.66 33.1211C118.902 33.6055 119.172 34.1328 119.468 34.7031C119.765 35.2734 120.07 35.8594 120.382 36.4609C120.703 37.0625 121.023 37.6523 121.343 38.2305C121.664 38.8008 121.968 39.332 122.257 39.8242L119.925 40.2344ZM114.078 32.6523L113.515 32.2422H115.59C116.316 32.2422 116.949 32.1875 117.488 32.0781C118.027 31.9688 118.445 31.7266 118.742 31.3516C119.039 30.9688 119.187 30.3789 119.187 29.582C119.187 28.8633 119.078 28.3086 118.859 27.918C118.648 27.5195 118.332 27.2461 117.91 27.0977C117.496 26.9414 116.992 26.8633 116.398 26.8633H113.515L114.078 26.1719V32.6523ZM130.454 40.1992C129.063 40.1992 127.958 39.9102 127.138 39.332C126.325 38.7461 125.743 37.875 125.392 36.7188C125.048 35.5547 124.876 34.1055 124.876 32.3711C124.876 30.6367 125.06 29.2031 125.427 28.0703C125.794 26.9375 126.388 26.0938 127.208 25.5391C128.028 24.9844 129.11 24.707 130.454 24.707C131.806 24.707 132.888 24.9844 133.7 25.5391C134.52 26.0938 135.114 26.9375 135.481 28.0703C135.856 29.2031 136.044 30.6367 136.044 32.3711C136.044 34.1055 135.868 35.5547 135.517 36.7188C135.165 37.875 134.583 38.7461 133.77 39.332C132.958 39.9102 131.853 40.1992 130.454 40.1992ZM130.454 38.2422C131.29 38.2422 131.942 38.043 132.411 37.6445C132.888 37.2461 133.224 36.6172 133.419 35.7578C133.614 34.8984 133.712 33.7812 133.712 32.4062C133.712 31.0156 133.61 29.9023 133.407 29.0664C133.212 28.2305 132.876 27.6211 132.399 27.2383C131.931 26.8555 131.282 26.6641 130.454 26.6641C129.634 26.6641 128.985 26.8555 128.509 27.2383C128.032 27.6211 127.692 28.2305 127.489 29.0664C127.294 29.9023 127.196 31.0156 127.196 32.4062C127.196 33.7812 127.294 34.8984 127.489 35.7578C127.685 36.6172 128.017 37.2461 128.485 37.6445C128.962 38.043 129.618 38.2422 130.454 38.2422ZM140.666 40.1758C140.268 40.1758 139.846 40.1367 139.401 40.0586C138.955 39.9805 138.553 39.8633 138.194 39.707L138.604 37.8789C138.893 37.9805 139.194 38.0664 139.506 38.1367C139.826 38.1992 140.119 38.2305 140.385 38.2305C140.76 38.2305 141.073 38.1562 141.323 38.0078C141.58 37.8516 141.772 37.6016 141.897 37.2578C142.03 36.9062 142.096 36.4414 142.096 35.8633V26.1484L142.658 26.875H138.955V24.9531H144.416V35.8516C144.416 36.6875 144.319 37.3867 144.123 37.9492C143.928 38.5117 143.655 38.957 143.303 39.2852C142.959 39.6055 142.561 39.8359 142.108 39.9766C141.662 40.1094 141.182 40.1758 140.666 40.1758ZM148.652 40V24.9531H157.265L156.96 26.875H150.011L150.972 25.6094V32.043L150.011 31.1641H156.609V33.0859H150.011L150.972 32.2656V39.3438L150.011 38.0781H157.101L157.312 40H148.652ZM169.059 40.2227C168.489 39.3398 167.934 38.4727 167.395 37.6211C166.856 36.7695 166.333 35.9219 165.825 35.0781C165.325 34.2266 164.833 33.375 164.348 32.5234L165.052 32.5586L162.216 35.1367L162.802 33.9297V40H160.481V24.9531H162.802V33.1211L162.075 32.9922L164.313 30.5547L168.661 24.7656L171.11 25.1289L165.966 32.1836L166.059 31.1289C166.645 32.1367 167.231 33.1211 167.817 34.082C168.403 35.0352 168.997 35.9844 169.598 36.9297C170.208 37.875 170.837 38.8438 171.485 39.8359L169.059 40.2227ZM176.986 40V25.668L177.9 26.8984H172.955V24.9531H183.338V26.8984H178.346L179.307 25.668V40H176.986ZM186.179 40V24.9531H194.792L194.488 26.875H187.538L188.499 25.6094V32.043L187.538 31.1641H194.136V33.0859H187.538L188.499 32.2656V39.3438L187.538 38.0781H194.628L194.839 40H186.179ZM206.176 40.2344C205.872 39.6875 205.516 39.0234 205.11 38.2422C204.704 37.4609 204.298 36.6562 203.891 35.8281C203.493 35 203.137 34.2422 202.825 33.5547L203.903 34.0234C203.63 34.0625 203.321 34.0938 202.977 34.1172C202.641 34.1406 202.333 34.1523 202.051 34.1523H199.919L200.329 33.4609V40H198.008V24.9531H202.673C203.704 24.9531 204.598 25.0938 205.356 25.375C206.114 25.6562 206.7 26.1328 207.114 26.8047C207.536 27.4766 207.747 28.4062 207.747 29.5938C207.747 30.8359 207.465 31.7969 206.903 32.4766C206.34 33.1484 205.594 33.6016 204.665 33.8359L204.911 33.1211C205.153 33.6055 205.423 34.1328 205.719 34.7031C206.016 35.2734 206.321 35.8594 206.633 36.4609C206.954 37.0625 207.274 37.6523 207.594 38.2305C207.915 38.8008 208.219 39.332 208.508 39.8242L206.176 40.2344ZM200.329 32.6523L199.766 32.2422H201.84C202.567 32.2422 203.2 32.1875 203.739 32.0781C204.278 31.9688 204.696 31.7266 204.993 31.3516C205.29 30.9688 205.438 30.3789 205.438 29.582C205.438 28.8633 205.329 28.3086 205.11 27.918C204.899 27.5195 204.583 27.2461 204.161 27.0977C203.747 26.9414 203.243 26.8633 202.649 26.8633H199.766L200.329 26.1719V32.6523Z" fill="#292D54"/>
<path d="M266.707 33.7071C267.098 33.3166 267.098 32.6834 266.707 32.2929L260.343 25.9289C259.953 25.5384 259.319 25.5384 258.929 25.9289C258.538 26.3195 258.538 26.9526 258.929 27.3431L264.586 33L258.929 38.6569C258.538 39.0474 258.538 39.6805 258.929 40.0711C259.319 40.4616 259.953 40.4616 260.343 40.0711L266.707 33.7071ZM233 34L266 34L266 32L233 32L233 34Z" fill="#292D54"/>
</svg>
