<svg width="440" height="65" viewBox="0 0 440 65" fill="none" xmlns="http://www.w3.org/2000/svg">
<rect x="0.5" y="0.5" width="439" height="64" rx="32" fill="#F5F5F5" stroke="#292D54"/>
<rect x="0.5" y="0.5" width="439" height="64" rx="32" fill="#F5F5F5" stroke="#292D54"/>
<path d="M401.707 33.7071C402.098 33.3166 402.098 32.6834 401.707 32.2929L395.343 25.9289C394.953 25.5384 394.319 25.5384 393.929 25.9289C393.538 26.3195 393.538 26.9526 393.929 27.3431L399.586 33L393.929 38.6569C393.538 39.0474 393.538 39.6805 393.929 40.0711C394.319 40.4616 394.953 40.4616 395.343 40.0711L401.707 33.7071ZM368 34L401 34L401 32L368 32L368 34Z" fill="#292D54"/>
<path d="M44.1953 40.1641C43.0547 40.1641 42.0352 39.9141 41.1367 39.4141C40.2383 38.9062 39.5312 38.0938 39.0156 36.9766C38.5 35.8516 38.2422 34.3555 38.2422 32.4883C38.2422 30.582 38.4648 29.0625 38.9102 27.9297C39.3633 26.7891 40.0391 25.9688 40.9375 25.4688C41.8359 24.9688 42.9531 24.7188 44.2891 24.7188C44.9297 24.7188 45.5977 24.7891 46.293 24.9297C46.9961 25.0703 47.707 25.332 48.4258 25.7148V29.1953L46.4453 29.3828V25.8789L47.0547 27.2617C46.7656 27.0898 46.375 26.9492 45.8828 26.8398C45.3984 26.7227 44.9023 26.6641 44.3945 26.6641C43.5352 26.6641 42.8203 26.8242 42.25 27.1445C41.6875 27.4648 41.2656 28.0469 40.9844 28.8906C40.7031 29.7344 40.5625 30.9453 40.5625 32.5234C40.5625 33.9297 40.7109 35.0469 41.0078 35.875C41.3125 36.7031 41.7461 37.3008 42.3086 37.668C42.8711 38.0273 43.543 38.207 44.3242 38.207C44.8164 38.207 45.3203 38.1484 45.8359 38.0312C46.3516 37.9062 46.9141 37.6797 47.5234 37.3516L46.7383 38.3945V33.1211L47.9219 33.9531H44.3359V32.0664H48.8359V38.875C48.3906 39.1719 47.7734 39.4609 46.9844 39.7422C46.1953 40.0234 45.2656 40.1641 44.1953 40.1641ZM61.0755 40.2344C60.7708 39.6875 60.4153 39.0234 60.0091 38.2422C59.6028 37.4609 59.1966 36.6562 58.7903 35.8281C58.3919 35 58.0364 34.2422 57.7239 33.5547L58.802 34.0234C58.5286 34.0625 58.22 34.0938 57.8763 34.1172C57.5403 34.1406 57.2317 34.1523 56.9505 34.1523H54.8177L55.2278 33.4609V40H52.9075V24.9531H57.5716C58.6028 24.9531 59.4973 25.0938 60.2552 25.375C61.013 25.6562 61.5989 26.1328 62.013 26.8047C62.4348 27.4766 62.6458 28.4062 62.6458 29.5938C62.6458 30.8359 62.3645 31.7969 61.802 32.4766C61.2395 33.1484 60.4934 33.6016 59.5638 33.8359L59.8098 33.1211C60.052 33.6055 60.3216 34.1328 60.6184 34.7031C60.9153 35.2734 61.22 35.8594 61.5325 36.4609C61.8528 37.0625 62.1731 37.6523 62.4934 38.2305C62.8138 38.8008 63.1184 39.332 63.4075 39.8242L61.0755 40.2344ZM55.2278 32.6523L54.6653 32.2422H56.7395C57.4661 32.2422 58.0989 32.1875 58.638 32.0781C59.177 31.9688 59.595 31.7266 59.8919 31.3516C60.1888 30.9688 60.3372 30.3789 60.3372 29.582C60.3372 28.8633 60.2278 28.3086 60.0091 27.918C59.7981 27.5195 59.4817 27.2461 59.0598 27.0977C58.6458 26.9414 58.1419 26.8633 57.5481 26.8633H54.6653L55.2278 26.1719V32.6523ZM71.6392 40.1758C69.7564 40.1758 68.397 39.6484 67.5611 38.5938C66.733 37.5312 66.3189 35.8555 66.3189 33.5664V24.9531H68.6392V33.5898C68.6392 34.7227 68.733 35.6289 68.9205 36.3086C69.1158 36.9883 69.4322 37.4805 69.8697 37.7852C70.315 38.082 70.9048 38.2305 71.6392 38.2305C72.3892 38.2305 72.983 38.082 73.4205 37.7852C73.858 37.4805 74.1705 36.9883 74.358 36.3086C74.5533 35.6289 74.6509 34.7227 74.6509 33.5898V24.9531H76.9713V33.5664C76.9713 35.8555 76.5533 37.5312 75.7173 38.5938C74.8892 39.6484 73.5298 40.1758 71.6392 40.1758ZM89.9139 40.1523L82.4842 27.3906L83.2577 27.3203V40H80.9959V24.9531H83.3866L90.7342 37.4922L89.9491 37.5625V24.9531H92.2108V39.9062L89.9139 40.1523ZM96.4581 40V24.9531H100.29C101.54 24.9531 102.583 25.0938 103.419 25.375C104.263 25.6562 104.935 26.0977 105.435 26.6992C105.935 27.3008 106.294 28.082 106.513 29.043C106.732 30.0039 106.841 31.1602 106.841 32.5117C106.841 33.7539 106.743 34.8438 106.548 35.7812C106.353 36.7109 106.017 37.4883 105.54 38.1133C105.064 38.7383 104.407 39.2109 103.571 39.5312C102.743 39.8438 101.693 40 100.419 40H96.4581ZM98.7784 39.3438L97.4308 38.0781H100.372C101.263 38.0781 101.982 37.9727 102.528 37.7617C103.075 37.543 103.489 37.2109 103.771 36.7656C104.06 36.3125 104.255 35.7383 104.357 35.043C104.458 34.3398 104.509 33.4961 104.509 32.5117C104.509 31.4805 104.45 30.6055 104.333 29.8867C104.216 29.168 104.005 28.5898 103.7 28.1523C103.396 27.707 102.962 27.3828 102.4 27.1797C101.845 26.9766 101.126 26.875 100.243 26.875H97.4308L98.7784 25.6094V39.3438ZM110.561 40V24.9531H112.881V39.3438L111.92 38.0547H118.471L118.741 40H110.561ZM122.39 40.2227L119.988 39.8594L127.207 24.9531H136.488L136.183 26.875H131.062V31.1523H135.832V33.0742H131.062V38.0781H136.324L136.535 40H128.73V36.6484H123.55L124.336 36.1094L122.39 40.2227ZM124.687 35.2891L124.347 34.7969H128.73V26.6758L124.687 35.2891ZM145.142 40.1641C144.001 40.1641 142.981 39.9141 142.083 39.4141C141.185 38.9062 140.478 38.0938 139.962 36.9766C139.446 35.8516 139.188 34.3555 139.188 32.4883C139.188 30.582 139.411 29.0625 139.856 27.9297C140.31 26.7891 140.985 25.9688 141.884 25.4688C142.782 24.9688 143.899 24.7188 145.235 24.7188C145.876 24.7188 146.544 24.7891 147.239 24.9297C147.942 25.0703 148.653 25.332 149.372 25.7148V29.1953L147.392 29.3828V25.8789L148.001 27.2617C147.712 27.0898 147.321 26.9492 146.829 26.8398C146.345 26.7227 145.849 26.6641 145.341 26.6641C144.481 26.6641 143.767 26.8242 143.196 27.1445C142.634 27.4648 142.212 28.0469 141.931 28.8906C141.649 29.7344 141.509 30.9453 141.509 32.5234C141.509 33.9297 141.657 35.0469 141.954 35.875C142.259 36.7031 142.692 37.3008 143.255 37.668C143.817 38.0273 144.489 38.207 145.27 38.207C145.763 38.207 146.267 38.1484 146.782 38.0312C147.298 37.9062 147.86 37.6797 148.47 37.3516L147.685 38.3945V33.1211L148.868 33.9531H145.282V32.0664H149.782V38.875C149.337 39.1719 148.72 39.4609 147.931 39.7422C147.142 40.0234 146.212 40.1641 145.142 40.1641ZM159.291 40.1641C158.151 40.1641 157.131 39.9141 156.233 39.4141C155.334 38.9062 154.627 38.0938 154.112 36.9766C153.596 35.8516 153.338 34.3555 153.338 32.4883C153.338 30.582 153.561 29.0625 154.006 27.9297C154.459 26.7891 155.135 25.9688 156.033 25.4688C156.932 24.9688 158.049 24.7188 159.385 24.7188C160.026 24.7188 160.694 24.7891 161.389 24.9297C162.092 25.0703 162.803 25.332 163.522 25.7148V29.1953L161.541 29.3828V25.8789L162.151 27.2617C161.862 27.0898 161.471 26.9492 160.979 26.8398C160.494 26.7227 159.998 26.6641 159.49 26.6641C158.631 26.6641 157.916 26.8242 157.346 27.1445C156.783 27.4648 156.362 28.0469 156.08 28.8906C155.799 29.7344 155.658 30.9453 155.658 32.5234C155.658 33.9297 155.807 35.0469 156.104 35.875C156.408 36.7031 156.842 37.3008 157.405 37.668C157.967 38.0273 158.639 38.207 159.42 38.207C159.912 38.207 160.416 38.1484 160.932 38.0312C161.448 37.9062 162.01 37.6797 162.619 37.3516L161.834 38.3945V33.1211L163.018 33.9531H159.432V32.0664H163.932V38.875C163.487 39.1719 162.869 39.4609 162.08 39.7422C161.291 40.0234 160.362 40.1641 159.291 40.1641ZM168.003 40V24.9531H176.617L176.312 26.875H169.363L170.324 25.6094V32.043L169.363 31.1641H175.96V33.0859H169.363L170.324 32.2656V39.3438L169.363 38.0781H176.453L176.664 40H168.003ZM188.751 40.1523L181.321 27.3906L182.095 27.3203V40H179.833V24.9531H182.223L189.571 37.4922L188.786 37.5625V24.9531H191.048V39.9062L188.751 40.1523ZM195.295 40V24.9531H199.127C200.377 24.9531 201.42 25.0938 202.256 25.375C203.1 25.6562 203.772 26.0977 204.272 26.6992C204.772 27.3008 205.131 28.082 205.35 29.043C205.568 30.0039 205.678 31.1602 205.678 32.5117C205.678 33.7539 205.58 34.8438 205.385 35.7812C205.19 36.7109 204.854 37.4883 204.377 38.1133C203.9 38.7383 203.244 39.2109 202.408 39.5312C201.58 39.8438 200.529 40 199.256 40H195.295ZM197.615 39.3438L196.268 38.0781H199.209C200.1 38.0781 200.818 37.9727 201.365 37.7617C201.912 37.543 202.326 37.2109 202.607 36.7656C202.897 36.3125 203.092 35.7383 203.193 35.043C203.295 34.3398 203.346 33.4961 203.346 32.5117C203.346 31.4805 203.287 30.6055 203.17 29.8867C203.053 29.168 202.842 28.5898 202.537 28.1523C202.232 27.707 201.799 27.3828 201.236 27.1797C200.682 26.9766 199.963 26.875 199.08 26.875H196.268L197.615 25.6094V39.3438ZM209.398 40V24.9531H218.011L217.706 26.875H210.757L211.718 25.6094V32.043L210.757 31.1641H217.355V33.0859H210.757L211.718 32.2656V39.3438L210.757 38.0781H217.847L218.058 40H209.398ZM229.283 40V38.0781H232.6L231.674 38.8867V26.0664L232.6 26.875H229.283V24.9531H236.396V26.875H233.045L234.006 26.0664V38.8867L233.045 38.0781H236.396V40H229.283ZM248.929 40.1523L241.499 27.3906L242.273 27.3203V40H240.011V24.9531H242.402L249.749 37.4922L248.964 37.5625V24.9531H251.226V39.9062L248.929 40.1523ZM255.473 40V24.9531H259.305C260.555 24.9531 261.598 25.0938 262.434 25.375C263.278 25.6562 263.95 26.0977 264.45 26.6992C264.95 27.3008 265.309 28.082 265.528 29.043C265.747 30.0039 265.856 31.1602 265.856 32.5117C265.856 33.7539 265.758 34.8438 265.563 35.7812C265.368 36.7109 265.032 37.4883 264.555 38.1133C264.079 38.7383 263.422 39.2109 262.586 39.5312C261.758 39.8438 260.708 40 259.434 40H255.473ZM257.793 39.3438L256.446 38.0781H259.387C260.278 38.0781 260.997 37.9727 261.543 37.7617C262.09 37.543 262.504 37.2109 262.786 36.7656C263.075 36.3125 263.27 35.7383 263.372 35.043C263.473 34.3398 263.524 33.4961 263.524 32.5117C263.524 31.4805 263.465 30.6055 263.348 29.8867C263.231 29.168 263.02 28.5898 262.715 28.1523C262.411 27.707 261.977 27.3828 261.415 27.1797C260.86 26.9766 260.141 26.875 259.258 26.875H256.446L257.793 25.6094V39.3438ZM269.576 40V24.9531H271.896V32.0195L270.982 31.1641H278.869L277.955 32.0195V24.9531H280.275V40H277.955V32.2305L278.869 33.0859H270.982L271.896 32.2305V40H269.576ZM289.585 40.1992C288.194 40.1992 287.089 39.9102 286.269 39.332C285.456 38.7461 284.874 37.875 284.523 36.7188C284.179 35.5547 284.007 34.1055 284.007 32.3711C284.007 30.6367 284.19 29.2031 284.558 28.0703C284.925 26.9375 285.519 26.0938 286.339 25.5391C287.159 24.9844 288.241 24.707 289.585 24.707C290.937 24.707 292.019 24.9844 292.831 25.5391C293.651 26.0938 294.245 26.9375 294.612 28.0703C294.987 29.2031 295.175 30.6367 295.175 32.3711C295.175 34.1055 294.999 35.5547 294.648 36.7188C294.296 37.875 293.714 38.7461 292.901 39.332C292.089 39.9102 290.983 40.1992 289.585 40.1992ZM289.585 38.2422C290.421 38.2422 291.073 38.043 291.542 37.6445C292.019 37.2461 292.355 36.6172 292.55 35.7578C292.745 34.8984 292.843 33.7812 292.843 32.4062C292.843 31.0156 292.741 29.9023 292.538 29.0664C292.343 28.2305 292.007 27.6211 291.53 27.2383C291.062 26.8555 290.413 26.6641 289.585 26.6641C288.765 26.6641 288.116 26.8555 287.64 27.2383C287.163 27.6211 286.823 28.2305 286.62 29.0664C286.425 29.9023 286.327 31.0156 286.327 32.4062C286.327 33.7812 286.425 34.8984 286.62 35.7578C286.815 36.6172 287.148 37.2461 287.616 37.6445C288.093 38.043 288.749 38.2422 289.585 38.2422ZM298.883 40V24.9531H301.203V39.3438L300.242 38.0547H306.793L307.063 40H298.883ZM309.939 40V24.9531H313.771C315.021 24.9531 316.064 25.0938 316.9 25.375C317.744 25.6562 318.416 26.0977 318.916 26.6992C319.416 27.3008 319.775 28.082 319.994 29.043C320.212 30.0039 320.322 31.1602 320.322 32.5117C320.322 33.7539 320.224 34.8438 320.029 35.7812C319.834 36.7109 319.498 37.4883 319.021 38.1133C318.545 38.7383 317.888 39.2109 317.052 39.5312C316.224 39.8438 315.173 40 313.9 40H309.939ZM312.259 39.3438L310.912 38.0781H313.853C314.744 38.0781 315.462 37.9727 316.009 37.7617C316.556 37.543 316.97 37.2109 317.252 36.7656C317.541 36.3125 317.736 35.7383 317.837 35.043C317.939 34.3398 317.99 33.4961 317.99 32.5117C317.99 31.4805 317.931 30.6055 317.814 29.8867C317.697 29.168 317.486 28.5898 317.181 28.1523C316.877 27.707 316.443 27.3828 315.88 27.1797C315.326 26.9766 314.607 26.875 313.724 26.875H310.912L312.259 25.6094V39.3438Z" fill="#292D54"/>
</svg>
