<svg width="305" height="65" viewBox="0 0 305 65" fill="none" xmlns="http://www.w3.org/2000/svg">
<rect x="0.5" y="0.5" width="304" height="64" rx="32" fill="#F5F5F5" stroke="#292D54"/>
<path d="M271.707 33.7071C272.098 33.3166 272.098 32.6834 271.707 32.2929L265.343 25.9289C264.953 25.5384 264.319 25.5384 263.929 25.9289C263.538 26.3195 263.538 26.9526 263.929 27.3431L269.586 33L263.929 38.6569C263.538 39.0474 263.538 39.6805 263.929 40.0711C264.319 40.4616 264.953 40.4616 265.343 40.0711L271.707 33.7071ZM238 34L271 34L271 32L238 32L238 34Z" fill="#292D54"/>
<path d="M38.7578 40V24.9531H42.8828C44.8047 24.9531 46.1758 25.2344 46.9961 25.7969C47.8242 26.3516 48.2383 27.2891 48.2383 28.6094C48.2383 29.6016 48.0625 30.3672 47.7109 30.9062C47.3594 31.4375 46.7773 31.8203 45.9648 32.0547C47.8398 32.5547 48.7773 33.7812 48.7773 35.7344C48.7773 36.7578 48.582 37.582 48.1914 38.207C47.8086 38.832 47.1914 39.2891 46.3398 39.5781C45.4961 39.8594 44.375 40 42.9766 40H38.7578ZM41.0781 39.4609L40.0469 38.1953H43.1992C43.9961 38.1953 44.6328 38.1172 45.1094 37.9609C45.5859 37.7969 45.9336 37.5234 46.1523 37.1406C46.3711 36.75 46.4805 36.2188 46.4805 35.5469C46.4805 34.6875 46.2344 34.0547 45.7422 33.6484C45.25 33.2344 44.4961 33.0273 43.4805 33.0273H40.0469L41.0781 32.2773V39.4609ZM41.0781 31.9258L40.0469 31.2227H43.375C44.3047 31.2227 44.9609 31.0508 45.3438 30.707C45.7344 30.3633 45.9297 29.7773 45.9297 28.9492C45.9297 28.1523 45.7227 27.5898 45.3086 27.2617C44.9023 26.9258 44.2148 26.7578 43.2461 26.7578H40.0469L41.0781 25.4922V31.9258ZM52.1341 40V24.9531H60.7473L60.4427 26.875H53.4934L54.4544 25.6094V32.043L53.4934 31.1641H60.0911V33.0859H53.4934L54.4544 32.2656V39.3438L53.4934 38.0781H60.5833L60.7942 40H52.1341ZM67.5845 40.1289C66.8423 40.1289 66.0884 40.0469 65.3228 39.8828C64.565 39.7188 63.8189 39.4766 63.0845 39.1562L63.6236 37.293C64.1314 37.5273 64.7056 37.7422 65.3463 37.9375C65.9869 38.125 66.7291 38.2188 67.5728 38.2188C68.4556 38.2188 69.1314 38.0039 69.6002 37.5742C70.0767 37.1445 70.315 36.5312 70.315 35.7344C70.315 35.1172 70.1392 34.6328 69.7877 34.2812C69.4439 33.9219 68.8345 33.6055 67.9595 33.332L66.4009 32.8516C65.315 32.5156 64.4947 32.0234 63.94 31.375C63.3931 30.7266 63.1197 29.8984 63.1197 28.8906C63.1197 27.5703 63.565 26.5469 64.4556 25.8203C65.3463 25.0938 66.5884 24.7305 68.1822 24.7305C68.9088 24.7305 69.6041 24.793 70.2681 24.918C70.94 25.043 71.5806 25.2383 72.19 25.5039L71.7798 27.3555C71.1939 27.1211 70.5923 26.9453 69.9752 26.8281C69.3658 26.7031 68.7877 26.6406 68.2408 26.6406C67.2642 26.6406 66.5455 26.8203 66.0845 27.1797C65.6314 27.5391 65.4048 28.0781 65.4048 28.7969C65.4048 29.3203 65.5416 29.7344 65.815 30.0391C66.0884 30.3359 66.5572 30.6016 67.2213 30.8359L68.7916 31.3516C69.565 31.6094 70.2369 31.9102 70.8072 32.2539C71.3775 32.5977 71.8189 33.0391 72.1314 33.5781C72.4517 34.1172 72.6119 34.8125 72.6119 35.6641C72.6119 37.0469 72.1822 38.1367 71.3228 38.9336C70.4713 39.7305 69.2252 40.1289 67.5845 40.1289ZM80.9491 40.1992C79.5584 40.1992 78.453 39.9102 77.6327 39.332C76.8202 38.7461 76.2381 37.875 75.8866 36.7188C75.5428 35.5547 75.3709 34.1055 75.3709 32.3711C75.3709 30.6367 75.5545 29.2031 75.9217 28.0703C76.2889 26.9375 76.8827 26.0938 77.703 25.5391C78.5233 24.9844 79.6053 24.707 80.9491 24.707C82.3006 24.707 83.3827 24.9844 84.1952 25.5391C85.0155 26.0938 85.6092 26.9375 85.9764 28.0703C86.3514 29.2031 86.5389 30.6367 86.5389 32.3711C86.5389 34.1055 86.3631 35.5547 86.0116 36.7188C85.66 37.875 85.078 38.7461 84.2655 39.332C83.453 39.9102 82.3475 40.1992 80.9491 40.1992ZM80.9491 38.2422C81.785 38.2422 82.4373 38.043 82.9061 37.6445C83.3827 37.2461 83.7186 36.6172 83.9139 35.7578C84.1092 34.8984 84.2069 33.7812 84.2069 32.4062C84.2069 31.0156 84.1053 29.9023 83.9022 29.0664C83.7069 28.2305 83.3709 27.6211 82.8944 27.2383C82.4256 26.8555 81.7772 26.6641 80.9491 26.6641C80.1287 26.6641 79.4803 26.8555 79.0037 27.2383C78.5272 27.6211 78.1873 28.2305 77.9842 29.0664C77.7889 29.9023 77.6912 31.0156 77.6912 32.4062C77.6912 33.7812 77.7889 34.8984 77.9842 35.7578C78.1795 36.6172 78.5116 37.2461 78.9803 37.6445C79.4569 38.043 80.1131 38.2422 80.9491 38.2422ZM77.8436 41.9922L76.5897 41.4766L84.0428 22.9727L85.285 23.5L77.8436 41.9922ZM95.6847 40.1641C94.5441 40.1641 93.5245 39.9141 92.6261 39.4141C91.7277 38.9062 91.0206 38.0938 90.505 36.9766C89.9894 35.8516 89.7316 34.3555 89.7316 32.4883C89.7316 30.582 89.9542 29.0625 90.3995 27.9297C90.8527 26.7891 91.5284 25.9688 92.4269 25.4688C93.3253 24.9688 94.4425 24.7188 95.7784 24.7188C96.4191 24.7188 97.087 24.7891 97.7823 24.9297C98.4855 25.0703 99.1964 25.332 99.9152 25.7148V29.1953L97.9347 29.3828V25.8789L98.5441 27.2617C98.255 27.0898 97.8644 26.9492 97.3722 26.8398C96.8878 26.7227 96.3917 26.6641 95.8839 26.6641C95.0245 26.6641 94.3097 26.8242 93.7394 27.1445C93.1769 27.4648 92.755 28.0469 92.4738 28.8906C92.1925 29.7344 92.0519 30.9453 92.0519 32.5234C92.0519 33.9297 92.2003 35.0469 92.4972 35.875C92.8019 36.7031 93.2355 37.3008 93.798 37.668C94.3605 38.0273 95.0323 38.207 95.8136 38.207C96.3058 38.207 96.8097 38.1484 97.3253 38.0312C97.8409 37.9062 98.4034 37.6797 99.0128 37.3516L98.2277 38.3945V33.1211L99.4113 33.9531H95.8253V32.0664H100.325V38.875C99.88 39.1719 99.2628 39.4609 98.4738 39.7422C97.6847 40.0234 96.755 40.1641 95.6847 40.1641ZM116.707 40.1289C115.965 40.1289 115.211 40.0469 114.445 39.8828C113.687 39.7188 112.941 39.4766 112.207 39.1562L112.746 37.293C113.254 37.5273 113.828 37.7422 114.468 37.9375C115.109 38.125 115.851 38.2188 116.695 38.2188C117.578 38.2188 118.254 38.0039 118.722 37.5742C119.199 37.1445 119.437 36.5312 119.437 35.7344C119.437 35.1172 119.261 34.6328 118.91 34.2812C118.566 33.9219 117.957 33.6055 117.082 33.332L115.523 32.8516C114.437 32.5156 113.617 32.0234 113.062 31.375C112.515 30.7266 112.242 29.8984 112.242 28.8906C112.242 27.5703 112.687 26.5469 113.578 25.8203C114.468 25.0938 115.711 24.7305 117.304 24.7305C118.031 24.7305 118.726 24.793 119.39 24.918C120.062 25.043 120.703 25.2383 121.312 25.5039L120.902 27.3555C120.316 27.1211 119.715 26.9453 119.097 26.8281C118.488 26.7031 117.91 26.6406 117.363 26.6406C116.386 26.6406 115.668 26.8203 115.207 27.1797C114.754 27.5391 114.527 28.0781 114.527 28.7969C114.527 29.3203 114.664 29.7344 114.937 30.0391C115.211 30.3359 115.679 30.6016 116.343 30.8359L117.914 31.3516C118.687 31.6094 119.359 31.9102 119.929 32.2539C120.5 32.5977 120.941 33.0391 121.254 33.5781C121.574 34.1172 121.734 34.8125 121.734 35.6641C121.734 37.0469 121.304 38.1367 120.445 38.9336C119.593 39.7305 118.347 40.1289 116.707 40.1289ZM124.376 40V38.0781H127.692L126.767 38.8867V26.0664L127.692 26.875H124.376V24.9531H131.489V26.875H128.138L129.099 26.0664V38.8867L128.138 38.0781H131.489V40H124.376ZM135.104 40V24.9531H138.936C140.186 24.9531 141.229 25.0938 142.065 25.375C142.908 25.6562 143.58 26.0977 144.08 26.6992C144.58 27.3008 144.94 28.082 145.158 29.043C145.377 30.0039 145.487 31.1602 145.487 32.5117C145.487 33.7539 145.389 34.8438 145.194 35.7812C144.998 36.7109 144.662 37.4883 144.186 38.1133C143.709 38.7383 143.053 39.2109 142.217 39.5312C141.389 39.8438 140.338 40 139.065 40H135.104ZM137.424 39.3438L136.076 38.0781H139.018C139.908 38.0781 140.627 37.9727 141.174 37.7617C141.721 37.543 142.135 37.2109 142.416 36.7656C142.705 36.3125 142.901 35.7383 143.002 35.043C143.104 34.3398 143.155 33.4961 143.155 32.5117C143.155 31.4805 143.096 30.6055 142.979 29.8867C142.862 29.168 142.651 28.5898 142.346 28.1523C142.041 27.707 141.608 27.3828 141.045 27.1797C140.49 26.9766 139.772 26.875 138.889 26.875H136.076L137.424 25.6094V39.3438ZM149.207 40V24.9531H157.82L157.515 26.875H150.566L151.527 25.6094V32.043L150.566 31.1641H157.164V33.0859H150.566L151.527 32.2656V39.3438L150.566 38.0781H157.656L157.867 40H149.207ZM169.954 40.1523L162.524 27.3906L163.298 27.3203V40H161.036V24.9531H163.427L170.774 37.4922L169.989 37.5625V24.9531H172.251V39.9062L169.954 40.1523ZM185.187 40V24.9531H187.507V32.0195L186.593 31.1641H194.48L193.566 32.0195V24.9531H195.886V40H193.566V32.2305L194.48 33.0859H186.593L187.507 32.2305V40H185.187ZM200.133 40V24.9531H208.747L208.442 26.875H201.493L202.454 25.6094V32.043L201.493 31.1641H208.09V33.0859H201.493L202.454 32.2656V39.3438L201.493 38.0781H208.583L208.794 40H200.133ZM220.131 40.2344C219.826 39.6875 219.471 39.0234 219.064 38.2422C218.658 37.4609 218.252 36.6562 217.846 35.8281C217.447 35 217.092 34.2422 216.779 33.5547L217.857 34.0234C217.584 34.0625 217.275 34.0938 216.932 34.1172C216.596 34.1406 216.287 34.1523 216.006 34.1523H213.873L214.283 33.4609V40H211.963V24.9531H216.627C217.658 24.9531 218.553 25.0938 219.31 25.375C220.068 25.6562 220.654 26.1328 221.068 26.8047C221.49 27.4766 221.701 28.4062 221.701 29.5938C221.701 30.8359 221.42 31.7969 220.857 32.4766C220.295 33.1484 219.549 33.6016 218.619 33.8359L218.865 33.1211C219.107 33.6055 219.377 34.1328 219.674 34.7031C219.971 35.2734 220.275 35.8594 220.588 36.4609C220.908 37.0625 221.228 37.6523 221.549 38.2305C221.869 38.8008 222.174 39.332 222.463 39.8242L220.131 40.2344ZM214.283 32.6523L213.721 32.2422H215.795C216.521 32.2422 217.154 32.1875 217.693 32.0781C218.232 31.9688 218.65 31.7266 218.947 31.3516C219.244 30.9688 219.393 30.3789 219.393 29.582C219.393 28.8633 219.283 28.3086 219.064 27.918C218.853 27.5195 218.537 27.2461 218.115 27.0977C217.701 26.9414 217.197 26.8633 216.603 26.8633H213.721L214.283 26.1719V32.6523Z" fill="#292D54"/>
</svg>
