<svg width="440" height="65" viewBox="0 0 440 65" fill="none" xmlns="http://www.w3.org/2000/svg">
<rect x="0.5" y="0.5" width="439" height="64" rx="32" fill="#F5F5F5" stroke="#292D54"/>
<path d="M401.707 33.7071C402.098 33.3166 402.098 32.6834 401.707 32.2929L395.343 25.9289C394.953 25.5384 394.319 25.5384 393.929 25.9289C393.538 26.3195 393.538 26.9526 393.929 27.3431L399.586 33L393.929 38.6569C393.538 39.0474 393.538 39.6805 393.929 40.0711C394.319 40.4616 394.953 40.4616 395.343 40.0711L401.707 33.7071ZM368 34L401 34L401 32L368 32L368 34Z" fill="#292D54"/>
<path d="M44.1953 40.1641C43.0547 40.1641 42.0352 39.9141 41.1367 39.4141C40.2383 38.9062 39.5312 38.0938 39.0156 36.9766C38.5 35.8516 38.2422 34.3555 38.2422 32.4883C38.2422 30.582 38.4648 29.0625 38.9102 27.9297C39.3633 26.7891 40.0391 25.9688 40.9375 25.4688C41.8359 24.9688 42.9531 24.7188 44.2891 24.7188C44.9297 24.7188 45.5977 24.7891 46.293 24.9297C46.9961 25.0703 47.707 25.332 48.4258 25.7148V29.1953L46.4453 29.3828V25.8789L47.0547 27.2617C46.7656 27.0898 46.375 26.9492 45.8828 26.8398C45.3984 26.7227 44.9023 26.6641 44.3945 26.6641C43.5352 26.6641 42.8203 26.8242 42.25 27.1445C41.6875 27.4648 41.2656 28.0469 40.9844 28.8906C40.7031 29.7344 40.5625 30.9453 40.5625 32.5234C40.5625 33.9297 40.7109 35.0469 41.0078 35.875C41.3125 36.7031 41.7461 37.3008 42.3086 37.668C42.8711 38.0273 43.543 38.207 44.3242 38.207C44.8164 38.207 45.3203 38.1484 45.8359 38.0312C46.3516 37.9062 46.9141 37.6797 47.5234 37.3516L46.7383 38.3945V33.1211L47.9219 33.9531H44.3359V32.0664H48.8359V38.875C48.3906 39.1719 47.7734 39.4609 46.9844 39.7422C46.1953 40.0234 45.2656 40.1641 44.1953 40.1641ZM61.0755 40.2344C60.7708 39.6875 60.4153 39.0234 60.0091 38.2422C59.6028 37.4609 59.1966 36.6562 58.7903 35.8281C58.3919 35 58.0364 34.2422 57.7239 33.5547L58.802 34.0234C58.5286 34.0625 58.22 34.0938 57.8763 34.1172C57.5403 34.1406 57.2317 34.1523 56.9505 34.1523H54.8177L55.2278 33.4609V40H52.9075V24.9531H57.5716C58.6028 24.9531 59.4973 25.0938 60.2552 25.375C61.013 25.6562 61.5989 26.1328 62.013 26.8047C62.4348 27.4766 62.6458 28.4062 62.6458 29.5938C62.6458 30.8359 62.3645 31.7969 61.802 32.4766C61.2395 33.1484 60.4934 33.6016 59.5638 33.8359L59.8098 33.1211C60.052 33.6055 60.3216 34.1328 60.6184 34.7031C60.9153 35.2734 61.22 35.8594 61.5325 36.4609C61.8528 37.0625 62.1731 37.6523 62.4934 38.2305C62.8138 38.8008 63.1184 39.332 63.4075 39.8242L61.0755 40.2344ZM55.2278 32.6523L54.6653 32.2422H56.7395C57.4661 32.2422 58.0989 32.1875 58.638 32.0781C59.177 31.9688 59.595 31.7266 59.8919 31.3516C60.1888 30.9688 60.3372 30.3789 60.3372 29.582C60.3372 28.8633 60.2278 28.3086 60.0091 27.918C59.7981 27.5195 59.4817 27.2461 59.0598 27.0977C58.6458 26.9414 58.1419 26.8633 57.5481 26.8633H54.6653L55.2278 26.1719V32.6523ZM71.6392 40.1758C69.7564 40.1758 68.397 39.6484 67.5611 38.5938C66.733 37.5312 66.3189 35.8555 66.3189 33.5664V24.9531H68.6392V33.5898C68.6392 34.7227 68.733 35.6289 68.9205 36.3086C69.1158 36.9883 69.4322 37.4805 69.8697 37.7852C70.315 38.082 70.9048 38.2305 71.6392 38.2305C72.3892 38.2305 72.983 38.082 73.4205 37.7852C73.858 37.4805 74.1705 36.9883 74.358 36.3086C74.5533 35.6289 74.6509 34.7227 74.6509 33.5898V24.9531H76.9713V33.5664C76.9713 35.8555 76.5533 37.5312 75.7173 38.5938C74.8892 39.6484 73.5298 40.1758 71.6392 40.1758ZM89.9139 40.1523L82.4842 27.3906L83.2577 27.3203V40H80.9959V24.9531H83.3866L90.7342 37.4922L89.9491 37.5625V24.9531H92.2108V39.9062L89.9139 40.1523ZM96.4581 40V24.9531H100.29C101.54 24.9531 102.583 25.0938 103.419 25.375C104.263 25.6562 104.935 26.0977 105.435 26.6992C105.935 27.3008 106.294 28.082 106.513 29.043C106.732 30.0039 106.841 31.1602 106.841 32.5117C106.841 33.7539 106.743 34.8438 106.548 35.7812C106.353 36.7109 106.017 37.4883 105.54 38.1133C105.064 38.7383 104.407 39.2109 103.571 39.5312C102.743 39.8438 101.693 40 100.419 40H96.4581ZM98.7784 39.3438L97.4308 38.0781H100.372C101.263 38.0781 101.982 37.9727 102.528 37.7617C103.075 37.543 103.489 37.2109 103.771 36.7656C104.06 36.3125 104.255 35.7383 104.357 35.043C104.458 34.3398 104.509 33.4961 104.509 32.5117C104.509 31.4805 104.45 30.6055 104.333 29.8867C104.216 29.168 104.005 28.5898 103.7 28.1523C103.396 27.707 102.962 27.3828 102.4 27.1797C101.845 26.9766 101.126 26.875 100.243 26.875H97.4308L98.7784 25.6094V39.3438ZM110.561 40V24.9531H112.881V39.3438L111.92 38.0547H118.471L118.741 40H110.561ZM122.39 40.2227L119.988 39.8594L127.207 24.9531H136.488L136.183 26.875H131.062V31.1523H135.832V33.0742H131.062V38.0781H136.324L136.535 40H128.73V36.6484H123.55L124.336 36.1094L122.39 40.2227ZM124.687 35.2891L124.347 34.7969H128.73V26.6758L124.687 35.2891ZM145.142 40.1641C144.001 40.1641 142.981 39.9141 142.083 39.4141C141.185 38.9062 140.478 38.0938 139.962 36.9766C139.446 35.8516 139.188 34.3555 139.188 32.4883C139.188 30.582 139.411 29.0625 139.856 27.9297C140.31 26.7891 140.985 25.9688 141.884 25.4688C142.782 24.9688 143.899 24.7188 145.235 24.7188C145.876 24.7188 146.544 24.7891 147.239 24.9297C147.942 25.0703 148.653 25.332 149.372 25.7148V29.1953L147.392 29.3828V25.8789L148.001 27.2617C147.712 27.0898 147.321 26.9492 146.829 26.8398C146.345 26.7227 145.849 26.6641 145.341 26.6641C144.481 26.6641 143.767 26.8242 143.196 27.1445C142.634 27.4648 142.212 28.0469 141.931 28.8906C141.649 29.7344 141.509 30.9453 141.509 32.5234C141.509 33.9297 141.657 35.0469 141.954 35.875C142.259 36.7031 142.692 37.3008 143.255 37.668C143.817 38.0273 144.489 38.207 145.27 38.207C145.763 38.207 146.267 38.1484 146.782 38.0312C147.298 37.9062 147.86 37.6797 148.47 37.3516L147.685 38.3945V33.1211L148.868 33.9531H145.282V32.0664H149.782V38.875C149.337 39.1719 148.72 39.4609 147.931 39.7422C147.142 40.0234 146.212 40.1641 145.142 40.1641ZM159.291 40.1641C158.151 40.1641 157.131 39.9141 156.233 39.4141C155.334 38.9062 154.627 38.0938 154.112 36.9766C153.596 35.8516 153.338 34.3555 153.338 32.4883C153.338 30.582 153.561 29.0625 154.006 27.9297C154.459 26.7891 155.135 25.9688 156.033 25.4688C156.932 24.9688 158.049 24.7188 159.385 24.7188C160.026 24.7188 160.694 24.7891 161.389 24.9297C162.092 25.0703 162.803 25.332 163.522 25.7148V29.1953L161.541 29.3828V25.8789L162.151 27.2617C161.862 27.0898 161.471 26.9492 160.979 26.8398C160.494 26.7227 159.998 26.6641 159.49 26.6641C158.631 26.6641 157.916 26.8242 157.346 27.1445C156.783 27.4648 156.362 28.0469 156.08 28.8906C155.799 29.7344 155.658 30.9453 155.658 32.5234C155.658 33.9297 155.807 35.0469 156.104 35.875C156.408 36.7031 156.842 37.3008 157.405 37.668C157.967 38.0273 158.639 38.207 159.42 38.207C159.912 38.207 160.416 38.1484 160.932 38.0312C161.448 37.9062 162.01 37.6797 162.619 37.3516L161.834 38.3945V33.1211L163.018 33.9531H159.432V32.0664H163.932V38.875C163.487 39.1719 162.869 39.4609 162.08 39.7422C161.291 40.0234 160.362 40.1641 159.291 40.1641ZM168.003 40V24.9531H176.617L176.312 26.875H169.363L170.324 25.6094V32.043L169.363 31.1641H175.96V33.0859H169.363L170.324 32.2656V39.3438L169.363 38.0781H176.453L176.664 40H168.003ZM188.751 40.1523L181.321 27.3906L182.095 27.3203V40H179.833V24.9531H182.223L189.571 37.4922L188.786 37.5625V24.9531H191.048V39.9062L188.751 40.1523ZM195.295 40V24.9531H199.127C200.377 24.9531 201.42 25.0938 202.256 25.375C203.1 25.6562 203.772 26.0977 204.272 26.6992C204.772 27.3008 205.131 28.082 205.35 29.043C205.568 30.0039 205.678 31.1602 205.678 32.5117C205.678 33.7539 205.58 34.8438 205.385 35.7812C205.19 36.7109 204.854 37.4883 204.377 38.1133C203.9 38.7383 203.244 39.2109 202.408 39.5312C201.58 39.8438 200.529 40 199.256 40H195.295ZM197.615 39.3438L196.268 38.0781H199.209C200.1 38.0781 200.818 37.9727 201.365 37.7617C201.912 37.543 202.326 37.2109 202.607 36.7656C202.897 36.3125 203.092 35.7383 203.193 35.043C203.295 34.3398 203.346 33.4961 203.346 32.5117C203.346 31.4805 203.287 30.6055 203.17 29.8867C203.053 29.168 202.842 28.5898 202.537 28.1523C202.232 27.707 201.799 27.3828 201.236 27.1797C200.682 26.9766 199.963 26.875 199.08 26.875H196.268L197.615 25.6094V39.3438ZM209.398 40V24.9531H218.011L217.706 26.875H210.757L211.718 25.6094V32.043L210.757 31.1641H217.355V33.0859H210.757L211.718 32.2656V39.3438L210.757 38.0781H217.847L218.058 40H209.398ZM235.014 40.1758C233.131 40.1758 231.771 39.6484 230.935 38.5938C230.107 37.5312 229.693 35.8555 229.693 33.5664V24.9531H232.014V33.5898C232.014 34.7227 232.107 35.6289 232.295 36.3086C232.49 36.9883 232.807 37.4805 233.244 37.7852C233.689 38.082 234.279 38.2305 235.014 38.2305C235.764 38.2305 236.357 38.082 236.795 37.7852C237.232 37.4805 237.545 36.9883 237.732 36.3086C237.928 35.6289 238.025 34.7227 238.025 33.5898V24.9531H240.346V33.5664C240.346 35.8555 239.928 37.5312 239.092 38.5938C238.264 39.6484 236.904 40.1758 235.014 40.1758ZM245.425 40.1875L243.175 39.8359L247.488 31.9375L247.441 32.6406L243.316 25.0703L245.566 24.7188L249.222 31.7031H248.167L251.788 24.7188L254.05 25.0703L249.866 32.6523L249.82 31.9492L254.202 39.8359L251.941 40.1875L248.132 32.9102H249.269L245.425 40.1875ZM258.227 41.6055L256.305 40.7969L263.711 22.293L265.622 23.1016L258.227 41.6055ZM273.736 40.1758C271.853 40.1758 270.494 39.6484 269.658 38.5938C268.83 37.5312 268.416 35.8555 268.416 33.5664V24.9531H270.736V33.5898C270.736 34.7227 270.83 35.6289 271.017 36.3086C271.213 36.9883 271.529 37.4805 271.967 37.7852C272.412 38.082 273.002 38.2305 273.736 38.2305C274.486 38.2305 275.08 38.082 275.517 37.7852C275.955 37.4805 276.267 36.9883 276.455 36.3086C276.65 35.6289 276.748 34.7227 276.748 33.5898V24.9531H279.068V33.5664C279.068 35.8555 278.65 37.5312 277.814 38.5938C276.986 39.6484 275.627 40.1758 273.736 40.1758ZM282.46 40V38.0781H285.776L284.851 38.8867V26.0664L285.776 26.875H282.46V24.9531H289.573V26.875H286.222L287.183 26.0664V38.8867L286.222 38.0781H289.573V40H282.46Z" fill="#292D54"/>
</svg>
